# xmcd CD database file
#
# Track frame offsets:
#	150
#	11084
#	22958
#	35236
#	48894
#	63213
#	75989
#	90853
#	102146
#	115994
#	129327
#	143230
#	156850
#	172498
#	186704
#	199493
#	215337
#	230394
#	241735
#	254206
#	269470
#	284239
#	299652
#	311666
#	326561
#	339672
#
# Disc length: 4713 seconds
#
# Revision: 0
# Processed by: cddbd v1.5.2PL0 Copyright (c) Steve Scherf et al.
# Submitted via: CDex 1.51
#
DISCID=9212671a
DTITLE=Django Reinhardt - Renown and Resistance 1937-1943 Disc A
DYEAR=2011
DGENRE=Jazz
TTITLE0=Pennies From Heaven
TTITLE1=Tiger Rag
TTITLE2=Whoa Babe
TTITLE3=PB Flat Blues
TTITLE4=Eddie's Blues
TTITLE5=Sweet Georgia Brown
TTITLE6=Lady Be Good
TTITLE7=Dinah
TTITLE8=Daphne
TTITLE9=You Took Advantage Of Me
TTITLE10=I Ain't Got Nobody
TTITLE11=Baby Won't You Please Come Home
TTITLE12=Big Boy Blues
TTITLE13=Swing Guitars
TTITLE14=Bill Coleman Blues
TTITLE15=Somebody Loves Me
TTITLE16=I Can't Believe That You're In Love With Me
TTITLE17=JS Bach Concerto in D Minor Swing
TTITLE18=Fiddle's Blues
TTITLE19=JS Bach Concerto in D Minor Improv
TTITLE20=Serenade For A Wealthy Widow
TTITLE21=Taj Mahal
TTITLE22=Organ Grinder's Swing
TTITLE23=Tea For Two
TTITLE24=Christmas Swing
TTITLE25=Blues
EXTD=YEAR: 2011
EXTT0=
EXTT1=
EXTT2=
EXTT3=
EXTT4=
EXTT5=
EXTT6=
EXTT7=
EXTT8=
EXTT9=
EXTT10=
EXTT11=
EXTT12=
EXTT13=
EXTT14=
EXTT15=
EXTT16=
EXTT17=
EXTT18=
EXTT19=
EXTT20=
EXTT21=
EXTT22=
EXTT23=
EXTT24=
EXTT25=
PLAYORDER=
